<svg id="Arrow" xmlns="http://www.w3.org/2000/svg" width="9.288" height="14.214" viewBox="0 0 9.288 14.214">
  <path id="Path_21" data-name="Path 21" d="M17.533,20.714A.533.533,0,0,1,17,20.181V7.033a.533.533,0,1,1,1.067,0V20.181A.533.533,0,0,1,17.533,20.714Z" transform="translate(-12.89 -6.5)" fill="#fff"/>
  <path id="Path_22" data-name="Path 22" d="M11.144,21.51a.532.532,0,0,1-.342-.124l-4.11-3.443a.533.533,0,0,1,.685-.818l3.768,3.157,3.768-3.157a.533.533,0,1,1,.685.818l-4.11,3.443A.532.532,0,0,1,11.144,21.51Z" transform="translate(-6.5 -7.296)" fill="#fff"/>
</svg>
