<svg id="Text" xmlns="http://www.w3.org/2000/svg" width="94.358" height="93.732" viewBox="0 0 94.358 93.732">
  <path id="Path_32" data-name="Path 32" d="M6.026,85.734l1.508.754,1.448-.471.191.583L3.662,88.394l-.189-.583L6.8,86.726,2.419,84.575,2.2,83.906l3.272,1.572,2.185-3.532.225.693Z" transform="translate(-0.682 -25.382)" fill="#5ab9ea"/>
  <path id="Path_33" data-name="Path 33" d="M5.741,74.7l.61,3.431-2.118.377-.525-2.95-.514.09L3.719,78.6l-2.029.361L1.1,75.651l-.522.092.7,3.912L6.981,78.64l-.718-4.035Z" transform="translate(-0.179 -23.108)" fill="#5ab9ea"/>
  <path id="Path_34" data-name="Path 34" d="M5.256,66.536,5.4,70.018l-2.151.09-.126-2.994-.52.022.126,2.994-2.06.087L.529,66.858,0,66.881l.166,3.97,5.79-.242-.171-4.095Z" transform="translate(0 -20.602)" fill="#5ab9ea"/>
  <path id="Path_35" data-name="Path 35" d="M2.536,57.277c1.227.119,1.882,1.082,1.739,2.548l-.15,1.549,1.82.178-.059.61L.118,61.6.329,59.44c.143-1.466.971-2.284,2.207-2.163m-.059.61c-.924-.09-1.51.469-1.622,1.622L.705,61.041l2.883.281.15-1.532c.112-1.153-.356-1.815-1.262-1.9" transform="translate(-0.037 -17.737)" fill="#5ab9ea"/>
  <path id="Path_36" data-name="Path 36" d="M7.119,50.528l-.384-.364a2.848,2.848,0,0,0,1.22-1.633c.309-1.039.008-1.621-.54-1.784-1.523-.453-1.6,3.246-3.66,2.634-.817-.243-1.334-1.088-.914-2.5a3.265,3.265,0,0,1,1-1.575l.409.338a2.993,2.993,0,0,0-.913,1.387c-.3,1.015.016,1.6.572,1.767,1.523.453,1.62-3.241,3.643-2.639.818.244,1.323,1.1.9,2.522a3.142,3.142,0,0,1-1.336,1.849" transform="translate(-0.834 -14.033)" fill="#5ab9ea"/>
  <path id="Path_37" data-name="Path 37" d="M7.682,41.734a2.91,2.91,0,0,1-1.434-3.984A2.806,2.806,0,0,1,7.89,36.168l.195.515a2.3,2.3,0,0,0-1.332,1.278,2.4,2.4,0,1,0,4.376,1.978,2.275,2.275,0,0,0,.072-1.847l.514-.195a2.818,2.818,0,0,1-.1,2.29,2.908,2.908,0,0,1-3.934,1.546" transform="translate(-1.842 -11.202)" fill="#5ab9ea"/>
  <path id="Path_38" data-name="Path 38" d="M16.311,31.348l-2.283.109a4.015,4.015,0,0,1-.23.4l-.84,1.309,1.546.993-.331.516L9.3,31.548l1.172-1.826c.8-1.24,1.906-1.59,2.951-.919a1.8,1.8,0,0,1,.817,2.1l2.437-.118ZM13.09,29.319c-.781-.5-1.558-.272-2.185.7l-.83,1.295,2.444,1.57.832-1.3c.626-.975.5-1.782-.261-2.273" transform="translate(-2.88 -8.817)" fill="#5ab9ea"/>
  <path id="Path_39" data-name="Path 39" d="M17.115,25.64a3.044,3.044,0,0,1,4.036-4.554,3.044,3.044,0,0,1-4.036,4.554m3.63-4.1a2.434,2.434,0,1,0,.187,3.408,2.347,2.347,0,0,0-.187-3.408" transform="translate(-4.99 -6.296)" fill="#5ab9ea"/>
  <path id="Path_40" data-name="Path 40" d="M22.682,16.341l.468-.4,3.4,4.017,2.476-2.1.342.4-2.943,2.494Z" transform="translate(-7.025 -4.939)" fill="#5ab9ea"/>
  <path id="Path_41" data-name="Path 41" d="M29.1,11.245l.511-.337,2.9,4.4,2.71-1.785.291.443-3.222,2.122Z" transform="translate(-9.012 -3.379)" fill="#5ab9ea"/>
  <path id="Path_42" data-name="Path 42" d="M44.68,2.435,46.8,7.827l-.469.185L41.143,5l1.722,4.376-.57.224L40.174,4.207l.469-.184,5.2,3.009L44.118,2.655Z" transform="translate(-12.443 -0.754)" fill="#5ab9ea"/>
  <path id="Path_43" data-name="Path 43" d="M55.212,2.93l.574-.126.476,2.158a3.2,3.2,0,0,1-1.92,1.177,2.913,2.913,0,0,1-3.617-2.221A2.916,2.916,0,0,1,53.082.38a2.862,2.862,0,0,1,2.283.354l-.289.462A2.367,2.367,0,0,0,53.224.909a2.373,2.373,0,0,0-1.909,2.879A2.374,2.374,0,0,0,54.248,5.6a2.507,2.507,0,0,0,1.383-.762Z" transform="translate(-15.688 -0.091)" fill="#5ab9ea"/>
  <path id="Path_44" data-name="Path 44" d="M79.978,0,78.724,5.658l.6.133L79.651,4.3l1.416-.917L82.79,6.559l.711.158L81.569,3.041l3.016-2.019L83.9.869,79.819,3.551,80.577.133Z" transform="translate(-24.384)" fill="#5ab9ea"/>
  <path id="Path_45" data-name="Path 45" d="M91.088,8.777l-.186.5L87.064,7.837l2.03-5.428L92.817,3.8l-.186.5L89.483,3.121l-.722,1.931L91.567,6.1l-.182.489L88.578,5.54l-.754,2.016Z" transform="translate(-26.967 -0.746)" fill="#5ab9ea"/>
  <path id="Path_46" data-name="Path 46" d="M98.435,12.479l-.251.467L94.569,11l2.75-5.109,3.5,1.884-.251.467L97.609,6.65l-.978,1.817,2.642,1.422-.248.46L96.383,8.927l-1.021,1.9Z" transform="translate(-29.291 -1.825)" fill="#5ab9ea"/>
  <path id="Path_47" data-name="Path 47" d="M107.508,14.807c-.731.994-1.892,1.066-3.08.193l-1.254-.922-1.084,1.474-.494-.362,3.431-4.671,1.748,1.285c1.188.872,1.467,2,.732,3m-.494-.363c.549-.748.369-1.537-.565-2.223l-1.241-.912-1.715,2.336,1.241.911c.935.686,1.742.621,2.281-.113" transform="translate(-31.468 -3.258)" fill="#5ab9ea"/>
  <path id="Path_48" data-name="Path 48" d="M111.159,22.488l.509-.145a2.846,2.846,0,0,0,.784,1.882c.737.794,1.392.831,1.811.442,1.166-1.08-1.977-3.032-.4-4.491.625-.58,1.616-.6,2.618.485a3.276,3.276,0,0,1,.844,1.667l-.5.179a2.978,2.978,0,0,0-.729-1.491c-.721-.778-1.387-.8-1.813-.409-1.165,1.081,1.965,3.044.417,4.48-.625.579-1.621.578-2.629-.509a3.142,3.142,0,0,1-.911-2.091" transform="translate(-34.429 -6.128)" fill="#5ab9ea"/>
  <path id="Path_49" data-name="Path 49" d="M118.359,27.3a2.91,2.91,0,0,1,4.159.792,2.8,2.8,0,0,1,.527,2.22l-.542-.095a2.3,2.3,0,0,0-.423-1.8,2.4,2.4,0,1,0-3.929,2.76,2.274,2.274,0,0,0,1.553,1l-.095.543a2.822,2.822,0,0,1-1.92-1.251,2.908,2.908,0,0,1,.67-4.174" transform="translate(-36.268 -8.283)" fill="#5ab9ea"/>
  <path id="Path_50" data-name="Path 50" d="M122.512,40.152l1.069-2.02a4.092,4.092,0,0,1-.231-.4l-.7-1.39-1.641.826-.275-.547,5.177-2.605.975,1.938c.662,1.316.4,2.449-.712,3.007a1.8,1.8,0,0,1-2.221-.364l-1.139,2.158Zm3.386-1.741c.829-.417,1.026-1.2.505-2.238l-.692-1.375-2.6,1.306.692,1.375c.521,1.035,1.277,1.341,2.09.932" transform="translate(-37.395 -10.535)" fill="#5ab9ea"/>
  <path id="Path_51" data-name="Path 51" d="M127.333,43.558a3.044,3.044,0,1,1-1.878,3.8,2.917,2.917,0,0,1,1.878-3.8M129,48.769a2.434,2.434,0,1,0-3.026-1.578A2.348,2.348,0,0,0,129,48.769" transform="translate(-38.807 -13.445)" fill="#5ab9ea"/>
  <path id="Path_52" data-name="Path 52" d="M132.967,53.915l.1.6-5.191.874.538,3.2-.522.088-.64-3.8Z" transform="translate(-39.414 -16.699)" fill="#5ab9ea"/>
  <path id="Path_53" data-name="Path 53" d="M128.27,62.31l.184,3.854.529-.025-.154-3.241,5.26-.25-.029-.612Z" transform="translate(-39.73 -19.214)" fill="#5ab9ea"/>
  <path id="Path_54" data-name="Path 54" d="M127.8,74.064l4.643.739-5.229,2.941-.079.5,5.723.91.095-.6-4.643-.738,5.23-2.949.079-.5-5.722-.91Z" transform="translate(-39.377 -22.753)" fill="#5ab9ea"/>
  <path id="Path_55" data-name="Path 55" d="M127.468,87.973l-.184.559-2.1-.69a3.2,3.2,0,0,1-.036-2.252,2.949,2.949,0,1,1,5.6,1.847,2.854,2.854,0,0,1-1.466,1.784l-.25-.484a2.447,2.447,0,1,0-3.37-2.954,2.5,2.5,0,0,0-.048,1.579Z" transform="translate(-38.705 -25.847)" fill="#5ab9ea"/>
  <path id="Path_56" data-name="Path 56" d="M113.385,109.532l-.066-1.685-1.111-1.041.418-.448,4.229,3.963-.419.447-2.555-2.395.228,4.877-.481.514-.2-3.625-4.147-.211.5-.532Z" transform="translate(-33.848 -32.943)" fill="#5ab9ea"/>
  <path id="Path_57" data-name="Path 57" d="M103.827,115.448l-.333-.413,3.188-2.575,3.641,4.508-3.091,2.5-.333-.411,2.615-2.112-1.3-1.6-2.331,1.882-.327-.406,2.331-1.882-1.353-1.675Z" transform="translate(-32.056 -34.833)" fill="#5ab9ea"/>
  <path id="Path_58" data-name="Path 58" d="M96.863,119.977l-.274-.453L100.1,117.4l3,4.961-3.4,2.054-.274-.454,2.877-1.737-1.066-1.765-2.564,1.549-.269-.446,2.564-1.549-1.113-1.842Z" transform="translate(-29.917 -36.364)" fill="#5ab9ea"/>
  <path id="Path_59" data-name="Path 59" d="M90.7,126.7c-.484-1.135.047-2.171,1.4-2.749l1.432-.61-.717-1.683.563-.24,2.272,5.332-1.995.85c-1.356.578-2.47.243-2.957-.9m.563-.24c.364.853,1.135,1.1,2.2.647l1.416-.6-1.135-2.666-1.416.6c-1.066.454-1.423,1.182-1.066,2.02" transform="translate(-28.039 -37.608)" fill="#5ab9ea"/>
  <path id="Path_60" data-name="Path 60" d="M82.426,126.21l-.136.511a2.847,2.847,0,0,0-2.018-.289c-1.06.226-1.427.77-1.307,1.329.333,1.554,3.618-.146,4.066,1.95.178.834-.316,1.693-1.757,2a3.27,3.27,0,0,1-1.864-.127l.1-.52a2.981,2.981,0,0,0,1.655.137c1.037-.221,1.4-.781,1.278-1.348-.332-1.554-3.621.131-4.062-1.933-.179-.834.333-1.689,1.782-2a3.141,3.141,0,0,1,2.263.287" transform="translate(-24.267 -38.977)" fill="#5ab9ea"/>
  <path id="Path_61" data-name="Path 61" d="M74.632,129.864a2.911,2.911,0,0,1-2.8,3.173,2.809,2.809,0,0,1-2.178-.68l.358-.417a2.3,2.3,0,0,0,1.761.553,2.4,2.4,0,1,0-.369-4.788,2.27,2.27,0,0,0-1.655.826l-.418-.358a2.815,2.815,0,0,1,2.056-1.014,2.907,2.907,0,0,1,3.248,2.705" transform="translate(-21.474 -39.382)" fill="#5ab9ea"/>
  <path id="Path_62" data-name="Path 62" d="M61.2,127.013l1.2,1.946a4.577,4.577,0,0,1,.464.006l1.553.1.123-1.833.612.041-.387,5.782-2.164-.145c-1.47-.1-2.312-.9-2.23-2.141a1.8,1.8,0,0,1,1.443-1.728l-1.28-2.076Zm-.221,3.8c-.062.926.514,1.5,1.67,1.572l1.537.1.194-2.9-1.537-.1c-1.156-.077-1.8.418-1.864,1.327" transform="translate(-18.696 -39.327)" fill="#5ab9ea"/>
  <path id="Path_63" data-name="Path 63" d="M55.7,129.286a3.044,3.044,0,1,1-2.317-3.549,2.916,2.916,0,0,1,2.317,3.549m-5.336-1.213a2.434,2.434,0,1,0,2.9-1.8,2.347,2.347,0,0,0-2.9,1.8" transform="translate(-15.39 -38.918)" fill="#5ab9ea"/>
  <path id="Path_64" data-name="Path 64" d="M45.076,128.91l-.572-.22,1.891-4.914-3.029-1.166.191-.495,3.6,1.386Z" transform="translate(-13.432 -37.823)" fill="#5ab9ea"/>
  <path id="Path_65" data-name="Path 65" d="M37.856,125.676l-.541-.287,2.47-4.65-2.865-1.523.248-.468,3.407,1.81Z" transform="translate(-11.435 -36.78)" fill="#5ab9ea"/>
  <path id="Path_66" data-name="Path 66" d="M31.1,122.481l-.512-.335,3.18-4.844.512.335Z" transform="translate(-9.474 -36.332)" fill="#5ab9ea"/>
  <path id="Path_67" data-name="Path 67" d="M22,115.688l3.694-4.465.389.322-.128,6,3-3.623.472.391-3.694,4.465-.389-.322.121-6-3,3.623Z" transform="translate(-6.816 -34.449)" fill="#5ab9ea"/>
  <path id="Path_68" data-name="Path 68" d="M17.453,106.745l-.388-.442,1.662-1.457a3.2,3.2,0,0,1,1.957,1.113,2.95,2.95,0,1,1-4.438,3.881,2.855,2.855,0,0,1-.79-2.169l.544.03a2.447,2.447,0,1,0,4.257-1.4,2.513,2.513,0,0,0-1.336-.844Z" transform="translate(-4.783 -32.474)" fill="#5ab9ea"/>
</svg>
