<svg xmlns="http://www.w3.org/2000/svg" width="21" height="21" viewBox="0 0 21 21">
  <path id="Globe" d="M13.872,3.375h-.035a10.5,10.5,0,0,0,.005,21h.035a10.5,10.5,0,1,0-.005-21Zm9.094,9.793H19.051a19.884,19.884,0,0,0-.495-3.847,15.373,15.373,0,0,0,2.508-1.06A9.045,9.045,0,0,1,22.967,13.168Zm-9.8,0H10.047a17.947,17.947,0,0,1,.444-3.488,15.351,15.351,0,0,0,2.675.358Zm0,1.413v3.125a15.416,15.416,0,0,0-2.675.358,17.945,17.945,0,0,1-.444-3.483Zm1.413,0h3.094a17.842,17.842,0,0,1-.444,3.478,15.061,15.061,0,0,0-2.65-.353Zm0-1.413v-3.13a15.416,15.416,0,0,0,2.65-.353,17.894,17.894,0,0,1,.444,3.483ZM20.1,7.217A14.018,14.018,0,0,1,18.182,8a10.424,10.424,0,0,0-1.337-2.751A9.132,9.132,0,0,1,20.1,7.217ZM16.85,8.362a14.2,14.2,0,0,1-2.271.3V4.96A6.117,6.117,0,0,1,16.85,8.362ZM13.166,4.94V8.66a13.955,13.955,0,0,1-2.3-.308A6.113,6.113,0,0,1,13.166,4.94Zm-2.3.323A10.506,10.506,0,0,0,9.537,7.994a14.334,14.334,0,0,1-1.893-.777A9,9,0,0,1,10.865,5.263Zm-4.184,3a15.068,15.068,0,0,0,2.483,1.05,19.083,19.083,0,0,0-.495,3.847H4.783A9,9,0,0,1,6.681,8.267Zm-1.9,6.315H8.664a19.833,19.833,0,0,0,.495,3.847,15.987,15.987,0,0,0-2.483,1.05A9.047,9.047,0,0,1,4.778,14.582ZM7.64,20.533a14.123,14.123,0,0,1,1.9-.777,10.544,10.544,0,0,0,1.327,2.736A9.219,9.219,0,0,1,7.64,20.533Zm3.23-1.141a14.029,14.029,0,0,1,2.3-.308V22.81A6.1,6.1,0,0,1,10.87,19.393Zm3.709,3.4V19.08a14.2,14.2,0,0,1,2.271.3A6.114,6.114,0,0,1,14.579,22.79ZM16.85,22.5a10.424,10.424,0,0,0,1.337-2.751,13.788,13.788,0,0,1,1.918.787A9.237,9.237,0,0,1,16.85,22.5Zm4.214-3.019a15.373,15.373,0,0,0-2.508-1.06,19.781,19.781,0,0,0,.495-3.842h3.916A9.006,9.006,0,0,1,21.064,19.483Z" transform="translate(-3.375 -3.375)" fill="#04080f"/>
</svg>
