<svg xmlns="http://www.w3.org/2000/svg" xmlns:xlink="http://www.w3.org/1999/xlink" width="191.683" height="57.603" viewBox="0 0 191.683 57.603">
  <defs>
    <clipPath id="clip-path">
      <rect id="Rectangle_26" data-name="Rectangle 26" width="119.683" height="53.719" transform="translate(0 0)" fill="#04080f"/>
    </clipPath>
  </defs>
  <g id="Logo" transform="translate(604 2.893)">
    <g id="Icon" transform="translate(-604 -2.893)">
      <path id="Path_13" data-name="Path 13" d="M57.6,22.54H43.826l9.7-9.784L44.631,3.938,35.063,13.59V0H22.54V13.777l-9.784-9.7L3.939,12.971l9.653,9.568H0V35.063H13.777l-9.7,9.784,8.893,8.816L22.54,44.01V57.6H35.065V43.829l9.781,9.7,8.818-8.895-9.652-9.569H57.6ZM14.279,34.9,28.8,20.516,43.323,34.9Z" fill="#04080f"/>
      <path id="Path_14" data-name="Path 14" d="M22.716,31.9h5.036l2.489-2.583h5.1L30.3,24.342Z" transform="translate(-1.525 -1.634)" fill="#04080f"/>
    </g>
    <g id="Group_30" data-name="Group 30" transform="translate(-532 -0.893)">
      <path id="Path_20" data-name="Path 20" d="M13.654,10.046,16.688,17.6H10.619Zm-3.237-6.54L0,27.108H6.809l1.855-4.587h9.98L20.5,27.108h6.945L16.992,3.506Z" fill="#04080f"/>
      <g id="Group_29" data-name="Group 29">
        <g id="Group_28" data-name="Group 28" clip-path="url(#clip-path)">
          <path id="Path_21" data-name="Path 21" d="M43.658,8.531V14.3a11.706,11.706,0,0,0-1.449-.1c-2.6,0-4.384,1.315-4.384,4.519v8.394H31.42V8.832h6.1v2.192c1.315-1.65,3.439-2.493,6.136-2.493" fill="#04080f"/>
          <path id="Path_22" data-name="Path 22" d="M47.437,17.938c0-5.5,4.349-9.407,10.486-9.407,4.147,0,7.317,1.853,8.564,5.024l-4.956,2.527a3.961,3.961,0,0,0-3.641-2.46c-2.227,0-3.98,1.55-3.98,4.316,0,2.831,1.753,4.383,3.98,4.383a3.964,3.964,0,0,0,3.641-2.462l4.956,2.529c-1.247,3.168-4.417,5.024-8.564,5.024-6.137,0-10.486-3.911-10.486-9.474" fill="#04080f"/>
          <path id="Path_23" data-name="Path 23" d="M85.029,26.365a8.6,8.6,0,0,1-4.451,1.047c-4.686,0-7.417-2.3-7.417-6.979V14.3H70.5V9.507h2.663V4.753h6.406V9.507h4.181V14.3H79.567v6.068a1.856,1.856,0,0,0,1.922,2.091,3.507,3.507,0,0,0,1.956-.572Z" fill="#04080f"/>
          <path id="Path_24" data-name="Path 24" d="M89.167,3.406C89.167,1.482,90.717,0,93.078,0s3.911,1.382,3.911,3.305c0,2.021-1.551,3.506-3.911,3.506s-3.911-1.485-3.911-3.4m.709,5.426h6.4V27.108h-6.4Z" fill="#04080f"/>
          <path id="Path_25" data-name="Path 25" d="M100.634,17.938c0-5.5,4.349-9.407,10.486-9.407,4.147,0,7.317,1.853,8.563,5.024l-4.955,2.527a3.961,3.961,0,0,0-3.641-2.46c-2.227,0-3.98,1.55-3.98,4.316,0,2.831,1.753,4.383,3.98,4.383a3.964,3.964,0,0,0,3.641-2.462l4.955,2.529c-1.246,3.168-4.416,5.024-8.563,5.024-6.137,0-10.486-3.911-10.486-9.474" fill="#04080f"/>
          <path id="Path_26" data-name="Path 26" d="M10.083,35.646H3.044V30.5H23.573v5.142H16.566V53.423H10.083Z" fill="#04080f"/>
          <path id="Path_27" data-name="Path 27" d="M39.545,35.383v5.6a11.4,11.4,0,0,0-1.407-.1c-2.522,0-4.257,1.277-4.257,4.389v8.151h-6.22V35.678h5.926v2.128c1.276-1.6,3.339-2.423,5.958-2.423" fill="#04080f"/>
          <path id="Path_28" data-name="Path 28" d="M60.918,43.567v9.856H55.123V51.132c-.884,1.7-2.652,2.587-5.239,2.587-4.256,0-6.613-2.391-6.613-5.468,0-3.275,2.39-5.305,7.89-5.305H54.7c-.1-1.8-1.309-2.817-3.765-2.817a8.27,8.27,0,0,0-4.813,1.54l-2.1-4.223a14.919,14.919,0,0,1,7.826-2.063c5.762,0,9.069,2.553,9.069,8.184M54.7,47.725V46.188H52.012c-2,0-2.718.718-2.718,1.8,0,1.049.852,1.8,2.326,1.8A3.062,3.062,0,0,0,54.7,47.725" fill="#04080f"/>
          <path id="Path_29" data-name="Path 29" d="M84.533,35.678,77.2,53.423H70.781l-7.3-17.745h6.385l4.256,10.838,4.485-10.838Z" fill="#04080f"/>
          <path id="Path_30" data-name="Path 30" d="M106.12,46.123H93.22c.524,1.8,2.063,2.846,4.354,2.846a5.688,5.688,0,0,0,4.092-1.537l3.275,3.405c-1.7,1.9-4.191,2.881-7.563,2.881-6.319,0-10.412-3.9-10.412-9.2,0-5.338,4.158-9.136,9.757-9.136,5.239,0,9.5,3.34,9.5,9.2,0,.458-.065,1.046-.1,1.54m-13-3.275h7.268a3.691,3.691,0,0,0-7.268,0" fill="#04080f"/>
          <path id="Path_31" data-name="Path 31" d="M111.332,30.548c-.31,0-.613-.016-.913-.037V53.423h6.22V29.2a10.17,10.17,0,0,1-5.307,1.351" fill="#04080f"/>
        </g>
      </g>
    </g>
  </g>
</svg>
