<svg xmlns="http://www.w3.org/2000/svg" width="31.507" height="28.008" viewBox="0 0 31.507 28.008">
  <path id="Piggy_Bank_Icon" data-name="Piggy Bank Icon" d="M30.634,12.253H29.02a8.779,8.779,0,0,0-2.046-2.872l1.034-4.13h-1.75a5.218,5.218,0,0,0-3.993,1.876A8.676,8.676,0,0,0,21.006,7H14a8.761,8.761,0,0,0-8.577,7H3.064a1.314,1.314,0,0,1-1.285-1.575,1.347,1.347,0,0,1,1.34-1.05h.055A.329.329,0,0,0,3.5,11.05V9.956a.329.329,0,0,0-.328-.328A3.134,3.134,0,0,0,.028,12.286a3.066,3.066,0,0,0,3.036,3.468H5.252a8.717,8.717,0,0,0,3.5,6.964v4.414a.878.878,0,0,0,.875.875h3.5A.878.878,0,0,0,14,27.132V24.507h7v2.626a.878.878,0,0,0,.875.875h3.5a.878.878,0,0,0,.875-.875V22.718a8.753,8.753,0,0,0,1.712-1.712h2.664a.878.878,0,0,0,.875-.875v-7A.878.878,0,0,0,30.634,12.253Zm-7,3.5a.875.875,0,1,1,.875-.875A.878.878,0,0,1,23.632,15.754ZM14,5.251h7c.3,0,.585.022.87.044,0-.016.005-.027.005-.044a5.251,5.251,0,0,0-10.5,0c0,.115.027.224.033.339A10.4,10.4,0,0,1,14,5.251Z" transform="translate(-0.002)" fill="#5ab9ea"/>
</svg>
