<svg xmlns="http://www.w3.org/2000/svg" width="32.404" height="28.804" viewBox="0 0 32.404 28.804">
  <path id="Ski_Icon" data-name="Ski Icon" d="M18.9,5.4a2.7,2.7,0,1,0-2.7-2.7A2.7,2.7,0,0,0,18.9,5.4Zm12.152,18a1.351,1.351,0,0,0-1.35,1.35,1.354,1.354,0,0,1-1.35,1.35h-3.91l1.435-10.036a1.8,1.8,0,0,0-.669-3.465H22.734L21.265,9.609a5.407,5.407,0,0,0-3.477-2.863L13.783,5.553a5.386,5.386,0,0,0-4.546.962L7,8.225a1.8,1.8,0,0,0-.332,2.526c.039.051.1.073.135.118L3.764,26.1H1.35a1.35,1.35,0,1,0,0,2.7h27A4.055,4.055,0,0,0,32.4,24.753,1.354,1.354,0,0,0,31.054,23.4ZM16.4,26.1H10.948l2.425-5.119-1.238-.731a5.392,5.392,0,0,1-1.66-1.564L6.959,26.1H5.6L8.54,11.4a1.822,1.822,0,0,0,.658-.315l2.233-1.71a1.742,1.742,0,0,1,1.423-.343l.827.248-2.11,4.917a3.611,3.611,0,0,0,1.48,4.517l4.782,2.824L16.4,26.1Zm6.222,0H20.168L21.5,21.856a2.714,2.714,0,0,0-1.215-3.06l-3.443-2.031,1.761-4.4,1.142,2.329A2.72,2.72,0,0,0,22.165,16.2h1.873l-1.418,9.9Z" fill="#5ab9ea"/>
</svg>
