<svg id="Text" xmlns="http://www.w3.org/2000/svg" width="136.699" height="135.792" viewBox="0 0 136.699 135.792">
  <path id="Path_32" data-name="Path 32" d="M7.743,87.434l2.185,1.092,2.1-.683.276.844-7.984,2.6-.274-.845,4.823-1.571-6.35-3.116L2.2,84.786l4.74,2.278,3.165-5.117.326,1Z" fill="#5ab9ea"/>
  <path id="Path_33" data-name="Path 33" d="M8.058,74.741l.884,4.971-3.069.546-.761-4.274-.745.131.761,4.275-2.94.523L1.335,76.12l-.756.133,1.009,5.668,8.266-1.47-1.04-5.845Z" fill="#5ab9ea"/>
  <path id="Path_34" data-name="Path 34" d="M7.614,66.546l.212,5.044-3.116.131-.182-4.338-.754.032.182,4.337-2.985.126-.2-4.865L0,67.045.241,72.8l8.388-.351-.248-5.932Z" fill="#5ab9ea"/>
  <path id="Path_35" data-name="Path 35" d="M3.621,57.282c1.778.173,2.727,1.567,2.52,3.691l-.218,2.244,2.637.258-.086.883L.118,63.544l.305-3.128c.207-2.124,1.406-3.309,3.2-3.134m-.086.883c-1.338-.13-2.188.679-2.35,2.35l-.216,2.22,4.177.407.217-2.22c.162-1.671-.516-2.629-1.828-2.757" fill="#5ab9ea"/>
  <path id="Path_36" data-name="Path 36" d="M9.106,52.872l-.556-.528a4.125,4.125,0,0,0,1.767-2.366c.448-1.505.011-2.348-.783-2.585-2.207-.656-2.324,4.7-5.3,3.816-1.184-.352-1.933-1.576-1.324-3.622a4.73,4.73,0,0,1,1.455-2.282l.592.489A4.335,4.335,0,0,0,3.632,47.8c-.438,1.47.023,2.321.828,2.56,2.207.656,2.347-4.695,5.278-3.823,1.185.353,1.916,1.6,1.3,3.654a4.552,4.552,0,0,1-1.936,2.678" fill="#5ab9ea"/>
  <path id="Path_37" data-name="Path 37" d="M8.46,44.232a4.216,4.216,0,0,1-2.077-5.771,4.065,4.065,0,0,1,2.379-2.293l.282.746a3.325,3.325,0,0,0-1.93,1.852,3.479,3.479,0,1,0,6.339,2.866,3.3,3.3,0,0,0,.1-2.676l.745-.282a4.082,4.082,0,0,1-.144,3.318,4.213,4.213,0,0,1-5.7,2.24" fill="#5ab9ea"/>
  <path id="Path_38" data-name="Path 38" d="M19.459,32.64l-3.307.158a5.817,5.817,0,0,1-.333.585L14.6,35.28l2.24,1.438-.48.747L9.3,32.93l1.7-2.645c1.153-1.8,2.761-2.3,4.275-1.331a2.6,2.6,0,0,1,1.183,3.04l3.531-.171ZM14.792,29.7c-1.132-.726-2.257-.394-3.165,1.02l-1.2,1.876,3.541,2.274,1.2-1.877c.907-1.413.73-2.581-.378-3.293" fill="#5ab9ea"/>
  <path id="Path_39" data-name="Path 39" d="M17.566,28.024a4.226,4.226,0,0,1-.267-6.136,4.272,4.272,0,1,1,6.39,5.665,4.226,4.226,0,0,1-6.123.471m5.259-5.933a3.527,3.527,0,0,0-4.678,5.278,3.527,3.527,0,0,0,4.678-5.278" fill="#5ab9ea"/>
  <path id="Path_40" data-name="Path 40" d="M22.682,16.519l.678-.574,4.931,5.819,3.587-3.04.5.586-4.263,3.613Z" fill="#5ab9ea"/>
  <path id="Path_41" data-name="Path 41" d="M29.1,11.4l.741-.488,4.2,6.37,3.926-2.586.422.642-4.668,3.074Z" fill="#5ab9ea"/>
  <path id="Path_42" data-name="Path 42" d="M46.7,2.435l3.073,7.812-.68.268L41.579,6.152l2.494,6.339-.826.325L40.174,5l.68-.267,7.528,4.359-2.494-6.34Z" fill="#5ab9ea"/>
  <path id="Path_43" data-name="Path 43" d="M57.259,4.114l.832-.183.689,3.127A4.642,4.642,0,0,1,56,8.763a4.22,4.22,0,0,1-5.24-3.218A4.225,4.225,0,0,1,54.174.42a4.146,4.146,0,0,1,3.307.513l-.418.669a3.429,3.429,0,0,0-2.684-.416,3.438,3.438,0,0,0-2.766,4.171,3.44,3.44,0,0,0,4.25,2.625,3.631,3.631,0,0,0,2-1.1Z" fill="#5ab9ea"/>
  <path id="Path_44" data-name="Path 44" d="M80.54,0,78.724,8.2l.867.192.476-2.155,2.052-1.328,2.5,4.6,1.03.229-2.8-5.326,4.37-2.925-1-.221L80.31,5.144l1.1-4.952Z" fill="#5ab9ea"/>
  <path id="Path_45" data-name="Path 45" d="M92.894,11.634l-.27.719-5.56-2.08L90,2.409,95.4,4.427l-.27.719-4.56-1.705-1.046,2.8,4.065,1.52-.264.708L89.257,6.945l-1.092,2.92Z" fill="#5ab9ea"/>
  <path id="Path_46" data-name="Path 46" d="M100.169,15.435l-.364.677-5.236-2.817,3.984-7.4,5.076,2.73-.364.677L98.972,6.99,97.555,9.623l3.827,2.06-.359.666L97.2,10.289l-1.479,2.75Z" fill="#5ab9ea"/>
  <path id="Path_47" data-name="Path 47" d="M110.161,16.731c-1.059,1.44-2.741,1.544-4.462.28l-1.817-1.335-1.57,2.136-.715-.525,4.971-6.767,2.532,1.861c1.721,1.263,2.125,2.9,1.061,4.35m-.716-.526c.795-1.083.534-2.226-.819-3.22l-1.8-1.321-2.485,3.384,1.8,1.32c1.354.994,2.523.9,3.3-.163" fill="#5ab9ea"/>
  <path id="Path_48" data-name="Path 48" d="M111.16,23.7l.738-.21a4.123,4.123,0,0,0,1.136,2.726c1.067,1.151,2.017,1.2,2.624.641,1.689-1.565-2.864-4.393-.586-6.506.906-.84,2.341-.862,3.793.7a4.747,4.747,0,0,1,1.223,2.415l-.722.26a4.314,4.314,0,0,0-1.056-2.16c-1.044-1.127-2.009-1.163-2.626-.592-1.688,1.566,2.847,4.41.6,6.49-.9.839-2.349.837-3.808-.738a4.551,4.551,0,0,1-1.32-3.029" fill="#5ab9ea"/>
  <path id="Path_49" data-name="Path 49" d="M118.927,27.547a4.216,4.216,0,0,1,6.025,1.147,4.063,4.063,0,0,1,.764,3.216l-.785-.137a3.327,3.327,0,0,0-.613-2.6,3.479,3.479,0,1,0-5.692,4,3.3,3.3,0,0,0,2.25,1.452l-.137.786a4.089,4.089,0,0,1-2.782-1.812,4.213,4.213,0,0,1,.97-6.047" fill="#5ab9ea"/>
  <path id="Path_50" data-name="Path 50" d="M123.31,42.907l1.548-2.926a5.931,5.931,0,0,1-.334-.584l-1.014-2.014-2.378,1.2-.4-.793,7.5-3.774,1.413,2.808c.959,1.906.578,3.548-1.031,4.357a2.6,2.6,0,0,1-3.218-.527l-1.65,3.126Zm4.906-2.522c1.2-.6,1.487-1.742.732-3.242l-1-1.992-3.76,1.892,1,1.992c.755,1.5,1.85,1.943,3.028,1.35" fill="#5ab9ea"/>
  <path id="Path_51" data-name="Path 51" d="M128.249,43.625a4.41,4.41,0,1,1-2.72,5.505,4.225,4.225,0,0,1,2.72-5.505m2.418,7.55a3.526,3.526,0,1,0-4.384-2.286,3.4,3.4,0,0,0,4.384,2.286" fill="#5ab9ea"/>
  <path id="Path_52" data-name="Path 52" d="M135.531,53.915l.146.876-7.521,1.266.779,4.635-.756.127-.927-5.51Z" fill="#5ab9ea"/>
  <path id="Path_53" data-name="Path 53" d="M128.27,62.433l.266,5.583.766-.036-.223-4.7,7.62-.362-.042-.887Z" fill="#5ab9ea"/>
  <path id="Path_54" data-name="Path 54" d="M128.093,74.336l6.727,1.071-7.575,4.26-.115.722,8.291,1.319.137-.866-6.727-1.069,7.577-4.272.114-.723-8.29-1.319Z" fill="#5ab9ea"/>
  <path id="Path_55" data-name="Path 55" d="M128.592,90l-.266.81-3.042-1a4.63,4.63,0,0,1-.052-3.262,4.273,4.273,0,1,1,8.109,2.676,4.134,4.134,0,0,1-2.124,2.585l-.362-.7a3.545,3.545,0,1,0-4.882-4.279,3.627,3.627,0,0,0-.069,2.287Z" fill="#5ab9ea"/>
  <path id="Path_56" data-name="Path 56" d="M115.226,110.956l-.1-2.441-1.61-1.508.606-.649,6.127,5.741-.607.648-3.7-3.469.331,7.066-.7.744-.289-5.251-6.008-.306.72-.77Z" fill="#5ab9ea"/>
  <path id="Path_57" data-name="Path 57" d="M103.976,116.788l-.482-.6,4.619-3.73,5.275,6.531-4.478,3.617-.483-.6,3.788-3.06-1.877-2.323-3.377,2.727-.474-.588,3.377-2.727-1.96-2.426Z" fill="#5ab9ea"/>
  <path id="Path_58" data-name="Path 58" d="M96.986,121.132l-.4-.657,5.082-3.07,4.34,7.187-4.927,2.976-.4-.657,4.168-2.517-1.545-2.557-3.715,2.244-.39-.646,3.715-2.244-1.612-2.669Z" fill="#5ab9ea"/>
  <path id="Path_59" data-name="Path 59" d="M90.779,129.073c-.7-1.645.068-3.145,2.032-3.982l2.074-.884-1.039-2.438.816-.348,3.291,7.724-2.89,1.231c-1.964.837-3.578.352-4.284-1.3m.816-.348c.527,1.236,1.645,1.6,3.189.937l2.052-.875-1.645-3.863-2.052.875c-1.545.658-2.061,1.712-1.544,2.926" fill="#5ab9ea"/>
  <path id="Path_60" data-name="Path 60" d="M84.256,126.377l-.2.741a4.125,4.125,0,0,0-2.923-.418c-1.536.328-2.067,1.115-1.894,1.926.482,2.252,5.241-.212,5.89,2.825.258,1.208-.458,2.452-2.545,2.9a4.737,4.737,0,0,1-2.7-.184l.144-.754a4.319,4.319,0,0,0,2.4.2c1.5-.32,2.027-1.131,1.851-1.953-.481-2.252-5.246.19-5.884-2.8-.259-1.208.483-2.447,2.582-2.9a4.55,4.55,0,0,1,3.278.416" fill="#5ab9ea"/>
  <path id="Path_61" data-name="Path 61" d="M77.012,131.083a4.217,4.217,0,0,1-4.06,4.6A4.07,4.07,0,0,1,69.8,134.7l.519-.6a3.332,3.332,0,0,0,2.551.8,3.479,3.479,0,1,0-.535-6.936,3.289,3.289,0,0,0-2.4,1.2l-.606-.519a4.078,4.078,0,0,1,2.978-1.469,4.211,4.211,0,0,1,4.705,3.919" fill="#5ab9ea"/>
  <path id="Path_62" data-name="Path 62" d="M61.575,127.033l1.735,2.819a6.632,6.632,0,0,1,.672.009l2.25.151.178-2.656.886.06-.561,8.376-3.135-.21c-2.13-.143-3.35-1.305-3.23-3.1a2.6,2.6,0,0,1,2.09-2.5l-1.854-3.008Zm-.32,5.507c-.09,1.341.745,2.166,2.42,2.278l2.226.149.281-4.2-2.226-.149c-1.675-.112-2.613.606-2.7,1.922" fill="#5ab9ea"/>
  <path id="Path_63" data-name="Path 63" d="M58.4,130.917a4.41,4.41,0,1,1-3.357-5.142,4.224,4.224,0,0,1,3.357,5.142m-7.73-1.757a3.526,3.526,0,1,0,4.2-2.612,3.4,3.4,0,0,0-4.2,2.612" fill="#5ab9ea"/>
  <path id="Path_64" data-name="Path 64" d="M45.843,131.959l-.828-.319,2.739-7.119-4.388-1.689.276-.717,5.216,2.008Z" fill="#5ab9ea"/>
  <path id="Path_65" data-name="Path 65" d="M38.276,128.784l-.784-.416,3.579-6.736-4.151-2.206.359-.678,4.936,2.622Z" fill="#5ab9ea"/>
  <path id="Path_66" data-name="Path 66" d="M31.33,124.806l-.742-.486L35.2,117.3l.742.486Z" fill="#5ab9ea"/>
  <path id="Path_67" data-name="Path 67" d="M22,117.691l5.352-6.469.563.466-.185,8.69,4.343-5.249.684.566-5.351,6.469-.564-.466.175-8.7-4.343,5.248Z" fill="#5ab9ea"/>
  <path id="Path_68" data-name="Path 68" d="M18.355,107.6l-.562-.641,2.408-2.111a4.64,4.64,0,0,1,2.835,1.613,4.273,4.273,0,1,1-6.429,5.623,4.137,4.137,0,0,1-1.145-3.143l.788.043a3.642,3.642,0,0,0,5.917,2.962,3.44,3.44,0,0,0,.25-4.989,3.64,3.64,0,0,0-1.935-1.223Z" fill="#5ab9ea"/>
</svg>
